<svg width="940" height="160" xmlns="http://www.w3.org/2000/svg">
    <style>
        .cell { 
            rx: 2; 
            transition: all 0.3s ease;
        }
        
        @keyframes fall {
            from { 
                transform: translateY(-120px);
                opacity: 0;
            }
            to { 
                transform: translateY(0);
                opacity: 1;
            }
        }
        
        @keyframes pulse {
            0%, 100% { opacity: 1; }
            50% { opacity: 0.7; }
        }
        
        @keyframes slideIn {
            from { 
                transform: translateX(-50px);
                opacity: 0;
            }
            to { 
                transform: translateX(0);
                opacity: 1;
            }
        }
        
        .falling { 
            animation: fall 0.8s cubic-bezier(0.34, 1.56, 0.64, 1) forwards;
        }
        
        .active {
            animation: pulse 2s ease-in-out infinite;
        }
        
        .cell:hover {
            transform: scale(1.2);
            filter: brightness(1.3);
        }
        
        .title {
            font-family: -apple-system, BlinkMacSystemFont, 'Segoe UI', 'Helvetica', 'Arial', sans-serif;
            font-weight: 600;
            animation: slideIn 1s ease-out;
        }
        
        .subtitle {
            font-family: -apple-system, BlinkMacSystemFont, 'Segoe UI', 'Helvetica', 'Arial', sans-serif;
            font-size: 11px;
            animation: slideIn 1.2s ease-out;
        }
    </style>
    
    <defs>
        <linearGradient id="titleGradient" x1="0%" y1="0%" x2="100%" y2="0%">
            <stop offset="0%" style="stop-color:#39d353;stop-opacity:1" />
            <stop offset="50%" style="stop-color:#26a641;stop-opacity:1" />
            <stop offset="100%" style="stop-color:#006d32;stop-opacity:1" />
        </linearGradient>
        
        <filter id="glow">
            <feGaussianBlur stdDeviation="2" result="coloredBlur"/>
            <feMerge>
                <feMergeNode in="coloredBlur"/>
                <feMergeNode in="SourceGraphic"/>
            </feMerge>
        </filter>
    </defs>
    
    <!-- Background -->
    <rect width="940" height="160" fill="#0d1117" rx="6"/>
    
    <!-- Title -->
    <text x="20" y="28" fill="url(#titleGradient)" font-size="18" class="title" filter="url(#glow)">
        🎮 GitHub Contributions Tetris
    </text>
    
    <!-- Subtitle with date -->
    <text x="20" y="44" fill="#8b949e" class="subtitle">
        Auto-generated pattern • Last updated: February 18, 2026
    </text>
    
    <text x="5" y="68" fill="#8b949e" font-size="9" font-family="sans-serif">Mon</text>
    <text x="5" y="92" fill="#8b949e" font-size="9" font-family="sans-serif">Wed</text>
    <text x="5" y="116" fill="#8b949e" font-size="9" font-family="sans-serif">Fri</text>
    <text x="20.0" y="55" fill="#8b949e" font-size="9" font-family="sans-serif">Mar</text>
    <text x="71.6" y="55" fill="#8b949e" font-size="9" font-family="sans-serif">Apr</text>
    <text x="123.19999999999999" y="55" fill="#8b949e" font-size="9" font-family="sans-serif">May</text>
    <text x="174.79999999999998" y="55" fill="#8b949e" font-size="9" font-family="sans-serif">Jun</text>
    <text x="226.39999999999998" y="55" fill="#8b949e" font-size="9" font-family="sans-serif">Jul</text>
    <text x="278.0" y="55" fill="#8b949e" font-size="9" font-family="sans-serif">Aug</text>
    <text x="329.59999999999997" y="55" fill="#8b949e" font-size="9" font-family="sans-serif">Sep</text>
    <text x="381.2" y="55" fill="#8b949e" font-size="9" font-family="sans-serif">Oct</text>
    <text x="432.79999999999995" y="55" fill="#8b949e" font-size="9" font-family="sans-serif">Nov</text>
    <text x="484.4" y="55" fill="#8b949e" font-size="9" font-family="sans-serif">Dec</text>
    <text x="536.0" y="55" fill="#8b949e" font-size="9" font-family="sans-serif">Jan</text>
    <text x="587.5999999999999" y="55" fill="#8b949e" font-size="9" font-family="sans-serif">Feb</text>
    <rect class="cell" x="20" y="60" width="10" height="10" fill="#161b22" stroke="#1b1f23" stroke-width="0.5"/>
    <rect class="cell" x="20" y="72" width="10" height="10" fill="#161b22" stroke="#1b1f23" stroke-width="0.5"/>
    <rect class="cell" x="20" y="84" width="10" height="10" fill="#161b22" stroke="#1b1f23" stroke-width="0.5"/>
    <rect class="cell" x="20" y="96" width="10" height="10" fill="#161b22" stroke="#1b1f23" stroke-width="0.5"/>
    <rect class="cell" x="20" y="108" width="10" height="10" fill="#161b22" stroke="#1b1f23" stroke-width="0.5"/>
    <rect class="cell" x="20" y="120" width="10" height="10" fill="#161b22" stroke="#1b1f23" stroke-width="0.5"/>
    <rect class="cell" x="20" y="132" width="10" height="10" fill="#161b22" stroke="#1b1f23" stroke-width="0.5"/>
    <rect class="cell" x="32" y="60" width="10" height="10" fill="#161b22" stroke="#1b1f23" stroke-width="0.5"/>
    <rect class="cell" x="32" y="72" width="10" height="10" fill="#161b22" stroke="#1b1f23" stroke-width="0.5"/>
    <rect class="cell" x="32" y="84" width="10" height="10" fill="#161b22" stroke="#1b1f23" stroke-width="0.5"/>
    <rect class="cell" x="32" y="96" width="10" height="10" fill="#161b22" stroke="#1b1f23" stroke-width="0.5"/>
    <rect class="cell" x="32" y="108" width="10" height="10" fill="#26a641" style="animation-delay: 0.095s"/>
    <rect class="cell" x="32" y="120" width="10" height="10" fill="#161b22" stroke="#1b1f23" stroke-width="0.5"/>
    <rect class="cell" x="32" y="132" width="10" height="10" fill="#161b22" stroke="#1b1f23" stroke-width="0.5"/>
    <rect class="cell" x="44" y="60" width="10" height="10" fill="#161b22" stroke="#1b1f23" stroke-width="0.5"/>
    <rect class="cell" x="44" y="72" width="10" height="10" fill="#161b22" stroke="#1b1f23" stroke-width="0.5"/>
    <rect class="cell" x="44" y="84" width="10" height="10" fill="#161b22" stroke="#1b1f23" stroke-width="0.5"/>
    <rect class="cell" x="44" y="96" width="10" height="10" fill="#39d353" style="animation-delay: 0.09s"/>
    <rect class="cell" x="44" y="108" width="10" height="10" fill="#161b22" stroke="#1b1f23" stroke-width="0.5"/>
    <rect class="cell" x="44" y="120" width="10" height="10" fill="#26a641" style="animation-delay: 0.13s"/>
    <rect class="cell" x="44" y="132" width="10" height="10" fill="#39d353" style="animation-delay: 0.15s"/>
    <rect class="cell" x="56" y="60" width="10" height="10" fill="#161b22" stroke="#1b1f23" stroke-width="0.5"/>
    <rect class="cell" x="56" y="72" width="10" height="10" fill="#161b22" stroke="#1b1f23" stroke-width="0.5"/>
    <rect class="cell" x="56" y="84" width="10" height="10" fill="#39d353" style="animation-delay: 0.08499999999999999s"/>
    <rect class="cell" x="56" y="96" width="10" height="10" fill="#161b22" stroke="#1b1f23" stroke-width="0.5"/>
    <rect class="cell" x="56" y="108" width="10" height="10" fill="#161b22" stroke="#1b1f23" stroke-width="0.5"/>
    <rect class="cell" x="56" y="120" width="10" height="10" fill="#161b22" stroke="#1b1f23" stroke-width="0.5"/>
    <rect class="cell" x="56" y="132" width="10" height="10" fill="#161b22" stroke="#1b1f23" stroke-width="0.5"/>
    <rect class="cell" x="68" y="60" width="10" height="10" fill="#161b22" stroke="#1b1f23" stroke-width="0.5"/>
    <rect class="cell" x="68" y="72" width="10" height="10" fill="#161b22" stroke="#1b1f23" stroke-width="0.5"/>
    <rect class="cell" x="68" y="84" width="10" height="10" fill="#39d353" style="animation-delay: 0.1s"/>
    <rect class="cell" x="68" y="96" width="10" height="10" fill="#161b22" stroke="#1b1f23" stroke-width="0.5"/>
    <rect class="cell" x="68" y="108" width="10" height="10" fill="#161b22" stroke="#1b1f23" stroke-width="0.5"/>
    <rect class="cell" x="68" y="120" width="10" height="10" fill="#161b22" stroke="#1b1f23" stroke-width="0.5"/>
    <rect class="cell" x="68" y="132" width="10" height="10" fill="#161b22" stroke="#1b1f23" stroke-width="0.5"/>
    <rect class="cell" x="80" y="60" width="10" height="10" fill="#0e4429" style="animation-delay: 0.075s"/>
    <rect class="cell" x="80" y="72" width="10" height="10" fill="#0e4429" style="animation-delay: 0.095s"/>
    <rect class="cell" x="80" y="84" width="10" height="10" fill="#161b22" stroke="#1b1f23" stroke-width="0.5"/>
    <rect class="cell" x="80" y="96" width="10" height="10" fill="#161b22" stroke="#1b1f23" stroke-width="0.5"/>
    <rect class="cell" x="80" y="108" width="10" height="10" fill="#161b22" stroke="#1b1f23" stroke-width="0.5"/>
    <rect class="cell" x="80" y="120" width="10" height="10" fill="#161b22" stroke="#1b1f23" stroke-width="0.5"/>
    <rect class="cell" x="80" y="132" width="10" height="10" fill="#161b22" stroke="#1b1f23" stroke-width="0.5"/>
    <rect class="cell" x="92" y="60" width="10" height="10" fill="#39d353" style="animation-delay: 0.09s"/>
    <rect class="cell" x="92" y="72" width="10" height="10" fill="#0e4429" style="animation-delay: 0.11s"/>
    <rect class="cell" x="92" y="84" width="10" height="10" fill="#161b22" stroke="#1b1f23" stroke-width="0.5"/>
    <rect class="cell" x="92" y="96" width="10" height="10" fill="#161b22" stroke="#1b1f23" stroke-width="0.5"/>
    <rect class="cell" x="92" y="108" width="10" height="10" fill="#161b22" stroke="#1b1f23" stroke-width="0.5"/>
    <rect class="cell" x="92" y="120" width="10" height="10" fill="#161b22" stroke="#1b1f23" stroke-width="0.5"/>
    <rect class="cell" x="92" y="132" width="10" height="10" fill="#161b22" stroke="#1b1f23" stroke-width="0.5"/>
    <rect class="cell" x="104" y="60" width="10" height="10" fill="#161b22" stroke="#1b1f23" stroke-width="0.5"/>
    <rect class="cell" x="104" y="72" width="10" height="10" fill="#161b22" stroke="#1b1f23" stroke-width="0.5"/>
    <rect class="cell" x="104" y="84" width="10" height="10" fill="#0e4429" style="animation-delay: 0.145s"/>
    <rect class="cell" x="104" y="96" width="10" height="10" fill="#161b22" stroke="#1b1f23" stroke-width="0.5"/>
    <rect class="cell" x="104" y="108" width="10" height="10" fill="#161b22" stroke="#1b1f23" stroke-width="0.5"/>
    <rect class="cell" x="104" y="120" width="10" height="10" fill="#26a641" style="animation-delay: 0.20500000000000002s"/>
    <rect class="cell" x="104" y="132" width="10" height="10" fill="#161b22" stroke="#1b1f23" stroke-width="0.5"/>
    <rect class="cell" x="116" y="60" width="10" height="10" fill="#161b22" stroke="#1b1f23" stroke-width="0.5"/>
    <rect class="cell" x="116" y="72" width="10" height="10" fill="#161b22" stroke="#1b1f23" stroke-width="0.5"/>
    <rect class="cell" x="116" y="84" width="10" height="10" fill="#161b22" stroke="#1b1f23" stroke-width="0.5"/>
    <rect class="cell" x="116" y="96" width="10" height="10" fill="#161b22" stroke="#1b1f23" stroke-width="0.5"/>
    <rect class="cell" x="116" y="108" width="10" height="10" fill="#161b22" stroke="#1b1f23" stroke-width="0.5"/>
    <rect class="cell" x="116" y="120" width="10" height="10" fill="#39d353" style="animation-delay: 0.22s"/>
    <rect class="cell" x="116" y="132" width="10" height="10" fill="#161b22" stroke="#1b1f23" stroke-width="0.5"/>
    <rect class="cell" x="128" y="60" width="10" height="10" fill="#161b22" stroke="#1b1f23" stroke-width="0.5"/>
    <rect class="cell" x="128" y="72" width="10" height="10" fill="#161b22" stroke="#1b1f23" stroke-width="0.5"/>
    <rect class="cell" x="128" y="84" width="10" height="10" fill="#26a641" style="animation-delay: 0.17500000000000002s"/>
    <rect class="cell" x="128" y="96" width="10" height="10" fill="#0e4429" style="animation-delay: 0.195s"/>
    <rect class="cell" x="128" y="108" width="10" height="10" fill="#0e4429" style="animation-delay: 0.21500000000000002s"/>
    <rect class="cell" x="128" y="120" width="10" height="10" fill="#161b22" stroke="#1b1f23" stroke-width="0.5"/>
    <rect class="cell" x="128" y="132" width="10" height="10" fill="#161b22" stroke="#1b1f23" stroke-width="0.5"/>
    <rect class="cell" x="140" y="60" width="10" height="10" fill="#39d353" style="animation-delay: 0.15s"/>
    <rect class="cell" x="140" y="72" width="10" height="10" fill="#0e4429" style="animation-delay: 0.16999999999999998s"/>
    <rect class="cell" x="140" y="84" width="10" height="10" fill="#161b22" stroke="#1b1f23" stroke-width="0.5"/>
    <rect class="cell" x="140" y="96" width="10" height="10" fill="#26a641" style="animation-delay: 0.21s"/>
    <rect class="cell" x="140" y="108" width="10" height="10" fill="#26a641" style="animation-delay: 0.22999999999999998s"/>
    <rect class="cell" x="140" y="120" width="10" height="10" fill="#0e4429" style="animation-delay: 0.25s"/>
    <rect class="cell" x="140" y="132" width="10" height="10" fill="#26a641" style="animation-delay: 0.27s"/>
    <rect class="cell" x="152" y="60" width="10" height="10" fill="#161b22" stroke="#1b1f23" stroke-width="0.5"/>
    <rect class="cell" x="152" y="72" width="10" height="10" fill="#161b22" stroke="#1b1f23" stroke-width="0.5"/>
    <rect class="cell" x="152" y="84" width="10" height="10" fill="#161b22" stroke="#1b1f23" stroke-width="0.5"/>
    <rect class="cell" x="152" y="96" width="10" height="10" fill="#161b22" stroke="#1b1f23" stroke-width="0.5"/>
    <rect class="cell" x="152" y="108" width="10" height="10" fill="#161b22" stroke="#1b1f23" stroke-width="0.5"/>
    <rect class="cell" x="152" y="120" width="10" height="10" fill="#161b22" stroke="#1b1f23" stroke-width="0.5"/>
    <rect class="cell" x="152" y="132" width="10" height="10" fill="#161b22" stroke="#1b1f23" stroke-width="0.5"/>
    <rect class="cell" x="164" y="60" width="10" height="10" fill="#006d32" style="animation-delay: 0.18s"/>
    <rect class="cell" x="164" y="72" width="10" height="10" fill="#0e4429" style="animation-delay: 0.19999999999999998s"/>
    <rect class="cell" x="164" y="84" width="10" height="10" fill="#161b22" stroke="#1b1f23" stroke-width="0.5"/>
    <rect class="cell" x="164" y="96" width="10" height="10" fill="#26a641" style="animation-delay: 0.24s"/>
    <rect class="cell" x="164" y="108" width="10" height="10" fill="#39d353" style="animation-delay: 0.26s"/>
    <rect class="cell" x="164" y="120" width="10" height="10" fill="#161b22" stroke="#1b1f23" stroke-width="0.5"/>
    <rect class="cell" x="164" y="132" width="10" height="10" fill="#161b22" stroke="#1b1f23" stroke-width="0.5"/>
    <rect class="cell" x="176" y="60" width="10" height="10" fill="#161b22" stroke="#1b1f23" stroke-width="0.5"/>
    <rect class="cell" x="176" y="72" width="10" height="10" fill="#39d353" style="animation-delay: 0.215s"/>
    <rect class="cell" x="176" y="84" width="10" height="10" fill="#161b22" stroke="#1b1f23" stroke-width="0.5"/>
    <rect class="cell" x="176" y="96" width="10" height="10" fill="#161b22" stroke="#1b1f23" stroke-width="0.5"/>
    <rect class="cell" x="176" y="108" width="10" height="10" fill="#161b22" stroke="#1b1f23" stroke-width="0.5"/>
    <rect class="cell" x="176" y="120" width="10" height="10" fill="#161b22" stroke="#1b1f23" stroke-width="0.5"/>
    <rect class="cell" x="176" y="132" width="10" height="10" fill="#161b22" stroke="#1b1f23" stroke-width="0.5"/>
    <rect class="cell" x="188" y="60" width="10" height="10" fill="#161b22" stroke="#1b1f23" stroke-width="0.5"/>
    <rect class="cell" x="188" y="72" width="10" height="10" fill="#161b22" stroke="#1b1f23" stroke-width="0.5"/>
    <rect class="cell" x="188" y="84" width="10" height="10" fill="#161b22" stroke="#1b1f23" stroke-width="0.5"/>
    <rect class="cell" x="188" y="96" width="10" height="10" fill="#161b22" stroke="#1b1f23" stroke-width="0.5"/>
    <rect class="cell" x="188" y="108" width="10" height="10" fill="#0e4429" style="animation-delay: 0.29s"/>
    <rect class="cell" x="188" y="120" width="10" height="10" fill="#161b22" stroke="#1b1f23" stroke-width="0.5"/>
    <rect class="cell" x="188" y="132" width="10" height="10" fill="#161b22" stroke="#1b1f23" stroke-width="0.5"/>
    <rect class="cell" x="200" y="60" width="10" height="10" fill="#26a641" style="animation-delay: 0.22499999999999998s"/>
    <rect class="cell" x="200" y="72" width="10" height="10" fill="#161b22" stroke="#1b1f23" stroke-width="0.5"/>
    <rect class="cell" x="200" y="84" width="10" height="10" fill="#39d353" style="animation-delay: 0.26499999999999996s"/>
    <rect class="cell" x="200" y="96" width="10" height="10" fill="#39d353" style="animation-delay: 0.285s"/>
    <rect class="cell" x="200" y="108" width="10" height="10" fill="#39d353" style="animation-delay: 0.305s"/>
    <rect class="cell" x="200" y="120" width="10" height="10" fill="#161b22" stroke="#1b1f23" stroke-width="0.5"/>
    <rect class="cell" x="200" y="132" width="10" height="10" fill="#006d32" style="animation-delay: 0.345s"/>
    <rect class="cell" x="212" y="60" width="10" height="10" fill="#161b22" stroke="#1b1f23" stroke-width="0.5"/>
    <rect class="cell" x="212" y="72" width="10" height="10" fill="#161b22" stroke="#1b1f23" stroke-width="0.5"/>
    <rect class="cell" x="212" y="84" width="10" height="10" fill="#161b22" stroke="#1b1f23" stroke-width="0.5"/>
    <rect class="cell" x="212" y="96" width="10" height="10" fill="#161b22" stroke="#1b1f23" stroke-width="0.5"/>
    <rect class="cell" x="212" y="108" width="10" height="10" fill="#39d353" style="animation-delay: 0.32s"/>
    <rect class="cell" x="212" y="120" width="10" height="10" fill="#161b22" stroke="#1b1f23" stroke-width="0.5"/>
    <rect class="cell" x="212" y="132" width="10" height="10" fill="#0e4429" style="animation-delay: 0.36s"/>
    <rect class="cell" x="224" y="60" width="10" height="10" fill="#26a641" style="animation-delay: 0.255s"/>
    <rect class="cell" x="224" y="72" width="10" height="10" fill="#26a641" style="animation-delay: 0.275s"/>
    <rect class="cell" x="224" y="84" width="10" height="10" fill="#161b22" stroke="#1b1f23" stroke-width="0.5"/>
    <rect class="cell" x="224" y="96" width="10" height="10" fill="#006d32" style="animation-delay: 0.315s"/>
    <rect class="cell" x="224" y="108" width="10" height="10" fill="#161b22" stroke="#1b1f23" stroke-width="0.5"/>
    <rect class="cell" x="224" y="120" width="10" height="10" fill="#006d32" style="animation-delay: 0.355s"/>
    <rect class="cell" x="224" y="132" width="10" height="10" fill="#006d32" style="animation-delay: 0.375s"/>
    <rect class="cell" x="236" y="60" width="10" height="10" fill="#161b22" stroke="#1b1f23" stroke-width="0.5"/>
    <rect class="cell" x="236" y="72" width="10" height="10" fill="#26a641" style="animation-delay: 0.29000000000000004s"/>
    <rect class="cell" x="236" y="84" width="10" height="10" fill="#161b22" stroke="#1b1f23" stroke-width="0.5"/>
    <rect class="cell" x="236" y="96" width="10" height="10" fill="#161b22" stroke="#1b1f23" stroke-width="0.5"/>
    <rect class="cell" x="236" y="108" width="10" height="10" fill="#161b22" stroke="#1b1f23" stroke-width="0.5"/>
    <rect class="cell" x="236" y="120" width="10" height="10" fill="#161b22" stroke="#1b1f23" stroke-width="0.5"/>
    <rect class="cell" x="236" y="132" width="10" height="10" fill="#161b22" stroke="#1b1f23" stroke-width="0.5"/>
    <rect class="cell" x="248" y="60" width="10" height="10" fill="#161b22" stroke="#1b1f23" stroke-width="0.5"/>
    <rect class="cell" x="248" y="72" width="10" height="10" fill="#0e4429" style="animation-delay: 0.305s"/>
    <rect class="cell" x="248" y="84" width="10" height="10" fill="#161b22" stroke="#1b1f23" stroke-width="0.5"/>
    <rect class="cell" x="248" y="96" width="10" height="10" fill="#161b22" stroke="#1b1f23" stroke-width="0.5"/>
    <rect class="cell" x="248" y="108" width="10" height="10" fill="#26a641" style="animation-delay: 0.365s"/>
    <rect class="cell" x="248" y="120" width="10" height="10" fill="#161b22" stroke="#1b1f23" stroke-width="0.5"/>
    <rect class="cell" x="248" y="132" width="10" height="10" fill="#161b22" stroke="#1b1f23" stroke-width="0.5"/>
    <rect class="cell" x="260" y="60" width="10" height="10" fill="#161b22" stroke="#1b1f23" stroke-width="0.5"/>
    <rect class="cell" x="260" y="72" width="10" height="10" fill="#39d353" style="animation-delay: 0.32s"/>
    <rect class="cell" x="260" y="84" width="10" height="10" fill="#0e4429" style="animation-delay: 0.33999999999999997s"/>
    <rect class="cell" x="260" y="96" width="10" height="10" fill="#161b22" stroke="#1b1f23" stroke-width="0.5"/>
    <rect class="cell" x="260" y="108" width="10" height="10" fill="#161b22" stroke="#1b1f23" stroke-width="0.5"/>
    <rect class="cell" x="260" y="120" width="10" height="10" fill="#161b22" stroke="#1b1f23" stroke-width="0.5"/>
    <rect class="cell" x="260" y="132" width="10" height="10" fill="#26a641" style="animation-delay: 0.42s"/>
    <rect class="cell" x="272" y="60" width="10" height="10" fill="#161b22" stroke="#1b1f23" stroke-width="0.5"/>
    <rect class="cell" x="272" y="72" width="10" height="10" fill="#161b22" stroke="#1b1f23" stroke-width="0.5"/>
    <rect class="cell" x="272" y="84" width="10" height="10" fill="#161b22" stroke="#1b1f23" stroke-width="0.5"/>
    <rect class="cell" x="272" y="96" width="10" height="10" fill="#161b22" stroke="#1b1f23" stroke-width="0.5"/>
    <rect class="cell" x="272" y="108" width="10" height="10" fill="#161b22" stroke="#1b1f23" stroke-width="0.5"/>
    <rect class="cell" x="272" y="120" width="10" height="10" fill="#161b22" stroke="#1b1f23" stroke-width="0.5"/>
    <rect class="cell" x="272" y="132" width="10" height="10" fill="#161b22" stroke="#1b1f23" stroke-width="0.5"/>
    <rect class="cell" x="284" y="60" width="10" height="10" fill="#006d32" style="animation-delay: 0.32999999999999996s"/>
    <rect class="cell" x="284" y="72" width="10" height="10" fill="#161b22" stroke="#1b1f23" stroke-width="0.5"/>
    <rect class="cell" x="284" y="84" width="10" height="10" fill="#161b22" stroke="#1b1f23" stroke-width="0.5"/>
    <rect class="cell" x="284" y="96" width="10" height="10" fill="#161b22" stroke="#1b1f23" stroke-width="0.5"/>
    <rect class="cell" x="284" y="108" width="10" height="10" fill="#161b22" stroke="#1b1f23" stroke-width="0.5"/>
    <rect class="cell" x="284" y="120" width="10" height="10" fill="#161b22" stroke="#1b1f23" stroke-width="0.5"/>
    <rect class="cell" x="284" y="132" width="10" height="10" fill="#26a641" style="animation-delay: 0.44999999999999996s"/>
    <rect class="cell" x="296" y="60" width="10" height="10" fill="#26a641" style="animation-delay: 0.345s"/>
    <rect class="cell" x="296" y="72" width="10" height="10" fill="#0e4429" style="animation-delay: 0.365s"/>
    <rect class="cell" x="296" y="84" width="10" height="10" fill="#26a641" style="animation-delay: 0.38499999999999995s"/>
    <rect class="cell" x="296" y="96" width="10" height="10" fill="#161b22" stroke="#1b1f23" stroke-width="0.5"/>
    <rect class="cell" x="296" y="108" width="10" height="10" fill="#006d32" style="animation-delay: 0.425s"/>
    <rect class="cell" x="296" y="120" width="10" height="10" fill="#39d353" style="animation-delay: 0.44499999999999995s"/>
    <rect class="cell" x="296" y="132" width="10" height="10" fill="#006d32" style="animation-delay: 0.46499999999999997s"/>
    <rect class="cell" x="308" y="60" width="10" height="10" fill="#26a641" style="animation-delay: 0.36s"/>
    <rect class="cell" x="308" y="72" width="10" height="10" fill="#26a641" style="animation-delay: 0.38s"/>
    <rect class="cell" x="308" y="84" width="10" height="10" fill="#26a641" style="animation-delay: 0.39999999999999997s"/>
    <rect class="cell" x="308" y="96" width="10" height="10" fill="#006d32" style="animation-delay: 0.42s"/>
    <rect class="cell" x="308" y="108" width="10" height="10" fill="#161b22" stroke="#1b1f23" stroke-width="0.5"/>
    <rect class="cell" x="308" y="120" width="10" height="10" fill="#26a641" style="animation-delay: 0.45999999999999996s"/>
    <rect class="cell" x="308" y="132" width="10" height="10" fill="#161b22" stroke="#1b1f23" stroke-width="0.5"/>
    <rect class="cell" x="320" y="60" width="10" height="10" fill="#0e4429" style="animation-delay: 0.375s"/>
    <rect class="cell" x="320" y="72" width="10" height="10" fill="#161b22" stroke="#1b1f23" stroke-width="0.5"/>
    <rect class="cell" x="320" y="84" width="10" height="10" fill="#161b22" stroke="#1b1f23" stroke-width="0.5"/>
    <rect class="cell" x="320" y="96" width="10" height="10" fill="#26a641" style="animation-delay: 0.435s"/>
    <rect class="cell" x="320" y="108" width="10" height="10" fill="#26a641" style="animation-delay: 0.455s"/>
    <rect class="cell" x="320" y="120" width="10" height="10" fill="#26a641" style="animation-delay: 0.475s"/>
    <rect class="cell" x="320" y="132" width="10" height="10" fill="#161b22" stroke="#1b1f23" stroke-width="0.5"/>
    <rect class="cell" x="332" y="60" width="10" height="10" fill="#161b22" stroke="#1b1f23" stroke-width="0.5"/>
    <rect class="cell" x="332" y="72" width="10" height="10" fill="#0e4429" style="animation-delay: 0.41000000000000003s"/>
    <rect class="cell" x="332" y="84" width="10" height="10" fill="#161b22" stroke="#1b1f23" stroke-width="0.5"/>
    <rect class="cell" x="332" y="96" width="10" height="10" fill="#006d32" style="animation-delay: 0.45s"/>
    <rect class="cell" x="332" y="108" width="10" height="10" fill="#161b22" stroke="#1b1f23" stroke-width="0.5"/>
    <rect class="cell" x="332" y="120" width="10" height="10" fill="#26a641" style="animation-delay: 0.49s"/>
    <rect class="cell" x="332" y="132" width="10" height="10" fill="#161b22" stroke="#1b1f23" stroke-width="0.5"/>
    <rect class="cell" x="344" y="60" width="10" height="10" fill="#26a641" style="animation-delay: 0.40499999999999997s"/>
    <rect class="cell" x="344" y="72" width="10" height="10" fill="#006d32" style="animation-delay: 0.425s"/>
    <rect class="cell" x="344" y="84" width="10" height="10" fill="#006d32" style="animation-delay: 0.44499999999999995s"/>
    <rect class="cell" x="344" y="96" width="10" height="10" fill="#161b22" stroke="#1b1f23" stroke-width="0.5"/>
    <rect class="cell" x="344" y="108" width="10" height="10" fill="#161b22" stroke="#1b1f23" stroke-width="0.5"/>
    <rect class="cell" x="344" y="120" width="10" height="10" fill="#0e4429" style="animation-delay: 0.505s"/>
    <rect class="cell" x="344" y="132" width="10" height="10" fill="#26a641" style="animation-delay: 0.5249999999999999s"/>
    <rect class="cell" x="356" y="60" width="10" height="10" fill="#39d353" style="animation-delay: 0.42s"/>
    <rect class="cell" x="356" y="72" width="10" height="10" fill="#006d32" style="animation-delay: 0.44s"/>
    <rect class="cell" x="356" y="84" width="10" height="10" fill="#006d32" style="animation-delay: 0.45999999999999996s"/>
    <rect class="cell" x="356" y="96" width="10" height="10" fill="#161b22" stroke="#1b1f23" stroke-width="0.5"/>
    <rect class="cell" x="356" y="108" width="10" height="10" fill="#161b22" stroke="#1b1f23" stroke-width="0.5"/>
    <rect class="cell" x="356" y="120" width="10" height="10" fill="#39d353" style="animation-delay: 0.52s"/>
    <rect class="cell" x="356" y="132" width="10" height="10" fill="#26a641" style="animation-delay: 0.54s"/>
    <rect class="cell" x="368" y="60" width="10" height="10" fill="#161b22" stroke="#1b1f23" stroke-width="0.5"/>
    <rect class="cell" x="368" y="72" width="10" height="10" fill="#39d353" style="animation-delay: 0.455s"/>
    <rect class="cell" x="368" y="84" width="10" height="10" fill="#161b22" stroke="#1b1f23" stroke-width="0.5"/>
    <rect class="cell" x="368" y="96" width="10" height="10" fill="#39d353" style="animation-delay: 0.495s"/>
    <rect class="cell" x="368" y="108" width="10" height="10" fill="#161b22" stroke="#1b1f23" stroke-width="0.5"/>
    <rect class="cell" x="368" y="120" width="10" height="10" fill="#006d32" style="animation-delay: 0.535s"/>
    <rect class="cell" x="368" y="132" width="10" height="10" fill="#161b22" stroke="#1b1f23" stroke-width="0.5"/>
    <rect class="cell" x="380" y="60" width="10" height="10" fill="#006d32" style="animation-delay: 0.44999999999999996s"/>
    <rect class="cell" x="380" y="72" width="10" height="10" fill="#161b22" stroke="#1b1f23" stroke-width="0.5"/>
    <rect class="cell" x="380" y="84" width="10" height="10" fill="#161b22" stroke="#1b1f23" stroke-width="0.5"/>
    <rect class="cell" x="380" y="96" width="10" height="10" fill="#39d353" style="animation-delay: 0.51s"/>
    <rect class="cell" x="380" y="108" width="10" height="10" fill="#161b22" stroke="#1b1f23" stroke-width="0.5"/>
    <rect class="cell" x="380" y="120" width="10" height="10" fill="#161b22" stroke="#1b1f23" stroke-width="0.5"/>
    <rect class="cell" x="380" y="132" width="10" height="10" fill="#161b22" stroke="#1b1f23" stroke-width="0.5"/>
    <rect class="cell" x="392" y="60" width="10" height="10" fill="#161b22" stroke="#1b1f23" stroke-width="0.5"/>
    <rect class="cell" x="392" y="72" width="10" height="10" fill="#161b22" stroke="#1b1f23" stroke-width="0.5"/>
    <rect class="cell" x="392" y="84" width="10" height="10" fill="#161b22" stroke="#1b1f23" stroke-width="0.5"/>
    <rect class="cell" x="392" y="96" width="10" height="10" fill="#39d353" style="animation-delay: 0.5249999999999999s"/>
    <rect class="cell" x="392" y="108" width="10" height="10" fill="#39d353" style="animation-delay: 0.5449999999999999s"/>
    <rect class="cell" x="392" y="120" width="10" height="10" fill="#161b22" stroke="#1b1f23" stroke-width="0.5"/>
    <rect class="cell" x="392" y="132" width="10" height="10" fill="#161b22" stroke="#1b1f23" stroke-width="0.5"/>
    <rect class="cell" x="404" y="60" width="10" height="10" fill="#39d353" style="animation-delay: 0.48s"/>
    <rect class="cell" x="404" y="72" width="10" height="10" fill="#161b22" stroke="#1b1f23" stroke-width="0.5"/>
    <rect class="cell" x="404" y="84" width="10" height="10" fill="#39d353" style="animation-delay: 0.52s"/>
    <rect class="cell" x="404" y="96" width="10" height="10" fill="#39d353" style="animation-delay: 0.54s"/>
    <rect class="cell" x="404" y="108" width="10" height="10" fill="#161b22" stroke="#1b1f23" stroke-width="0.5"/>
    <rect class="cell" x="404" y="120" width="10" height="10" fill="#161b22" stroke="#1b1f23" stroke-width="0.5"/>
    <rect class="cell" x="404" y="132" width="10" height="10" fill="#39d353" style="animation-delay: 0.6s"/>
    <rect class="cell" x="416" y="60" width="10" height="10" fill="#26a641" style="animation-delay: 0.495s"/>
    <rect class="cell" x="416" y="72" width="10" height="10" fill="#39d353" style="animation-delay: 0.515s"/>
    <rect class="cell" x="416" y="84" width="10" height="10" fill="#39d353" style="animation-delay: 0.535s"/>
    <rect class="cell" x="416" y="96" width="10" height="10" fill="#39d353" style="animation-delay: 0.5549999999999999s"/>
    <rect class="cell" x="416" y="108" width="10" height="10" fill="#161b22" stroke="#1b1f23" stroke-width="0.5"/>
    <rect class="cell" x="416" y="120" width="10" height="10" fill="#39d353" style="animation-delay: 0.595s"/>
    <rect class="cell" x="416" y="132" width="10" height="10" fill="#161b22" stroke="#1b1f23" stroke-width="0.5"/>
    <rect class="cell" x="428" y="60" width="10" height="10" fill="#161b22" stroke="#1b1f23" stroke-width="0.5"/>
    <rect class="cell" x="428" y="72" width="10" height="10" fill="#39d353" style="animation-delay: 0.53s"/>
    <rect class="cell" x="428" y="84" width="10" height="10" fill="#006d32" style="animation-delay: 0.55s"/>
    <rect class="cell" x="428" y="96" width="10" height="10" fill="#39d353" style="animation-delay: 0.5700000000000001s"/>
    <rect class="cell" x="428" y="108" width="10" height="10" fill="#161b22" stroke="#1b1f23" stroke-width="0.5"/>
    <rect class="cell" x="428" y="120" width="10" height="10" fill="#26a641" style="animation-delay: 0.61s"/>
    <rect class="cell" x="428" y="132" width="10" height="10" fill="#161b22" stroke="#1b1f23" stroke-width="0.5"/>
    <rect class="cell" x="440" y="60" width="10" height="10" fill="#161b22" stroke="#1b1f23" stroke-width="0.5"/>
    <rect class="cell" x="440" y="72" width="10" height="10" fill="#161b22" stroke="#1b1f23" stroke-width="0.5"/>
    <rect class="cell" x="440" y="84" width="10" height="10" fill="#161b22" stroke="#1b1f23" stroke-width="0.5"/>
    <rect class="cell" x="440" y="96" width="10" height="10" fill="#39d353" style="animation-delay: 0.585s"/>
    <rect class="cell" x="440" y="108" width="10" height="10" fill="#161b22" stroke="#1b1f23" stroke-width="0.5"/>
    <rect class="cell" x="440" y="120" width="10" height="10" fill="#161b22" stroke="#1b1f23" stroke-width="0.5"/>
    <rect class="cell" x="440" y="132" width="10" height="10" fill="#161b22" stroke="#1b1f23" stroke-width="0.5"/>
    <rect class="cell" x="452" y="60" width="10" height="10" fill="#161b22" stroke="#1b1f23" stroke-width="0.5"/>
    <rect class="cell" x="452" y="72" width="10" height="10" fill="#39d353" style="animation-delay: 0.56s"/>
    <rect class="cell" x="452" y="84" width="10" height="10" fill="#39d353" style="animation-delay: 0.5800000000000001s"/>
    <rect class="cell" x="452" y="96" width="10" height="10" fill="#39d353" style="animation-delay: 0.6000000000000001s"/>
    <rect class="cell" x="452" y="108" width="10" height="10" fill="#161b22" stroke="#1b1f23" stroke-width="0.5"/>
    <rect class="cell" x="452" y="120" width="10" height="10" fill="#006d32" style="animation-delay: 0.64s"/>
    <rect class="cell" x="452" y="132" width="10" height="10" fill="#0e4429" style="animation-delay: 0.66s"/>
    <rect class="cell" x="464" y="60" width="10" height="10" fill="#161b22" stroke="#1b1f23" stroke-width="0.5"/>
    <rect class="cell" x="464" y="72" width="10" height="10" fill="#26a641" style="animation-delay: 0.575s"/>
    <rect class="cell" x="464" y="84" width="10" height="10" fill="#26a641" style="animation-delay: 0.595s"/>
    <rect class="cell" x="464" y="96" width="10" height="10" fill="#161b22" stroke="#1b1f23" stroke-width="0.5"/>
    <rect class="cell" x="464" y="108" width="10" height="10" fill="#161b22" stroke="#1b1f23" stroke-width="0.5"/>
    <rect class="cell" x="464" y="120" width="10" height="10" fill="#161b22" stroke="#1b1f23" stroke-width="0.5"/>
    <rect class="cell" x="464" y="132" width="10" height="10" fill="#161b22" stroke="#1b1f23" stroke-width="0.5"/>
    <rect class="cell" x="476" y="60" width="10" height="10" fill="#161b22" stroke="#1b1f23" stroke-width="0.5"/>
    <rect class="cell" x="476" y="72" width="10" height="10" fill="#161b22" stroke="#1b1f23" stroke-width="0.5"/>
    <rect class="cell" x="476" y="84" width="10" height="10" fill="#26a641" style="animation-delay: 0.61s"/>
    <rect class="cell" x="476" y="96" width="10" height="10" fill="#0e4429" style="animation-delay: 0.6299999999999999s"/>
    <rect class="cell" x="476" y="108" width="10" height="10" fill="#161b22" stroke="#1b1f23" stroke-width="0.5"/>
    <rect class="cell" x="476" y="120" width="10" height="10" fill="#39d353" style="animation-delay: 0.6699999999999999s"/>
    <rect class="cell" x="476" y="132" width="10" height="10" fill="#161b22" stroke="#1b1f23" stroke-width="0.5"/>
    <rect class="cell" x="488" y="60" width="10" height="10" fill="#161b22" stroke="#1b1f23" stroke-width="0.5"/>
    <rect class="cell" x="488" y="72" width="10" height="10" fill="#161b22" stroke="#1b1f23" stroke-width="0.5"/>
    <rect class="cell" x="488" y="84" width="10" height="10" fill="#006d32" style="animation-delay: 0.625s"/>
    <rect class="cell" x="488" y="96" width="10" height="10" fill="#26a641" style="animation-delay: 0.645s"/>
    <rect class="cell" x="488" y="108" width="10" height="10" fill="#161b22" stroke="#1b1f23" stroke-width="0.5"/>
    <rect class="cell" x="488" y="120" width="10" height="10" fill="#161b22" stroke="#1b1f23" stroke-width="0.5"/>
    <rect class="cell" x="488" y="132" width="10" height="10" fill="#161b22" stroke="#1b1f23" stroke-width="0.5"/>
    <rect class="cell" x="500" y="60" width="10" height="10" fill="#39d353" style="animation-delay: 0.6s"/>
    <rect class="cell" x="500" y="72" width="10" height="10" fill="#161b22" stroke="#1b1f23" stroke-width="0.5"/>
    <rect class="cell" x="500" y="84" width="10" height="10" fill="#0e4429" style="animation-delay: 0.64s"/>
    <rect class="cell" x="500" y="96" width="10" height="10" fill="#39d353" style="animation-delay: 0.6599999999999999s"/>
    <rect class="cell" x="500" y="108" width="10" height="10" fill="#161b22" stroke="#1b1f23" stroke-width="0.5"/>
    <rect class="cell" x="500" y="120" width="10" height="10" fill="#161b22" stroke="#1b1f23" stroke-width="0.5"/>
    <rect class="cell" x="500" y="132" width="10" height="10" fill="#161b22" stroke="#1b1f23" stroke-width="0.5"/>
    <rect class="cell" x="512" y="60" width="10" height="10" fill="#161b22" stroke="#1b1f23" stroke-width="0.5"/>
    <rect class="cell" x="512" y="72" width="10" height="10" fill="#006d32" style="animation-delay: 0.635s"/>
    <rect class="cell" x="512" y="84" width="10" height="10" fill="#161b22" stroke="#1b1f23" stroke-width="0.5"/>
    <rect class="cell" x="512" y="96" width="10" height="10" fill="#39d353" style="animation-delay: 0.675s"/>
    <rect class="cell" x="512" y="108" width="10" height="10" fill="#39d353" style="animation-delay: 0.695s"/>
    <rect class="cell" x="512" y="120" width="10" height="10" fill="#26a641" style="animation-delay: 0.715s"/>
    <rect class="cell" x="512" y="132" width="10" height="10" fill="#161b22" stroke="#1b1f23" stroke-width="0.5"/>
    <rect class="cell" x="524" y="60" width="10" height="10" fill="#0e4429" style="animation-delay: 0.63s"/>
    <rect class="cell" x="524" y="72" width="10" height="10" fill="#161b22" stroke="#1b1f23" stroke-width="0.5"/>
    <rect class="cell" x="524" y="84" width="10" height="10" fill="#26a641" style="animation-delay: 0.67s"/>
    <rect class="cell" x="524" y="96" width="10" height="10" fill="#161b22" stroke="#1b1f23" stroke-width="0.5"/>
    <rect class="cell" x="524" y="108" width="10" height="10" fill="#39d353" style="animation-delay: 0.71s"/>
    <rect class="cell" x="524" y="120" width="10" height="10" fill="#161b22" stroke="#1b1f23" stroke-width="0.5"/>
    <rect class="cell" x="524" y="132" width="10" height="10" fill="#161b22" stroke="#1b1f23" stroke-width="0.5"/>
    <rect class="cell falling active" x="536" y="60" width="10" height="10" fill="#26a641" style="animation-delay: 0.645s"/>
    <rect class="cell falling active" x="536" y="72" width="10" height="10" fill="#26a641" style="animation-delay: 0.665s"/>
    <rect class="cell falling active" x="536" y="84" width="10" height="10" fill="#26a641" style="animation-delay: 0.685s"/>
    <rect class="cell falling active" x="536" y="96" width="10" height="10" fill="#39d353" style="animation-delay: 0.7050000000000001s"/>
    <rect class="cell falling active" x="536" y="108" width="10" height="10" fill="#006d32" style="animation-delay: 0.725s"/>
    <rect class="cell falling active" x="536" y="120" width="10" height="10" fill="#39d353" style="animation-delay: 0.745s"/>
    <rect class="cell falling active" x="536" y="132" width="10" height="10" fill="#006d32" style="animation-delay: 0.765s"/>
    <rect class="cell" x="548" y="60" width="10" height="10" fill="#161b22" stroke="#1b1f23" stroke-width="0.5"/>
    <rect class="cell falling active" x="548" y="72" width="10" height="10" fill="#26a641" style="animation-delay: 0.6799999999999999s"/>
    <rect class="cell" x="548" y="84" width="10" height="10" fill="#161b22" stroke="#1b1f23" stroke-width="0.5"/>
    <rect class="cell falling active" x="548" y="96" width="10" height="10" fill="#39d353" style="animation-delay: 0.72s"/>
    <rect class="cell" x="548" y="108" width="10" height="10" fill="#161b22" stroke="#1b1f23" stroke-width="0.5"/>
    <rect class="cell" x="548" y="120" width="10" height="10" fill="#161b22" stroke="#1b1f23" stroke-width="0.5"/>
    <rect class="cell" x="548" y="132" width="10" height="10" fill="#161b22" stroke="#1b1f23" stroke-width="0.5"/>
    <rect class="cell" x="560" y="60" width="10" height="10" fill="#161b22" stroke="#1b1f23" stroke-width="0.5"/>
    <rect class="cell" x="560" y="72" width="10" height="10" fill="#161b22" stroke="#1b1f23" stroke-width="0.5"/>
    <rect class="cell" x="560" y="84" width="10" height="10" fill="#161b22" stroke="#1b1f23" stroke-width="0.5"/>
    <rect class="cell falling active" x="560" y="96" width="10" height="10" fill="#39d353" style="animation-delay: 0.7349999999999999s"/>
    <rect class="cell" x="560" y="108" width="10" height="10" fill="#161b22" stroke="#1b1f23" stroke-width="0.5"/>
    <rect class="cell" x="560" y="120" width="10" height="10" fill="#161b22" stroke="#1b1f23" stroke-width="0.5"/>
    <rect class="cell" x="560" y="132" width="10" height="10" fill="#161b22" stroke="#1b1f23" stroke-width="0.5"/>
    <rect class="cell" x="572" y="60" width="10" height="10" fill="#161b22" stroke="#1b1f23" stroke-width="0.5"/>
    <rect class="cell" x="572" y="72" width="10" height="10" fill="#161b22" stroke="#1b1f23" stroke-width="0.5"/>
    <rect class="cell" x="572" y="84" width="10" height="10" fill="#161b22" stroke="#1b1f23" stroke-width="0.5"/>
    <rect class="cell falling active" x="572" y="96" width="10" height="10" fill="#39d353" style="animation-delay: 0.75s"/>
    <rect class="cell falling active" x="572" y="108" width="10" height="10" fill="#0e4429" style="animation-delay: 0.7699999999999999s"/>
    <rect class="cell" x="572" y="120" width="10" height="10" fill="#161b22" stroke="#1b1f23" stroke-width="0.5"/>
    <rect class="cell" x="572" y="132" width="10" height="10" fill="#161b22" stroke="#1b1f23" stroke-width="0.5"/>
    <rect class="cell falling active" x="584" y="60" width="10" height="10" fill="#0e4429" style="animation-delay: 0.705s"/>
    <rect class="cell falling active" x="584" y="72" width="10" height="10" fill="#39d353" style="animation-delay: 0.725s"/>
    <rect class="cell" x="584" y="84" width="10" height="10" fill="#161b22" stroke="#1b1f23" stroke-width="0.5"/>
    <rect class="cell" x="584" y="96" width="10" height="10" fill="#161b22" stroke="#1b1f23" stroke-width="0.5"/>
    <rect class="cell falling active" x="584" y="108" width="10" height="10" fill="#0e4429" style="animation-delay: 0.7849999999999999s"/>
    <rect class="cell" x="584" y="120" width="10" height="10" fill="#161b22" stroke="#1b1f23" stroke-width="0.5"/>
    <rect class="cell" x="584" y="132" width="10" height="10" fill="#161b22" stroke="#1b1f23" stroke-width="0.5"/>
    <rect class="cell" x="596" y="60" width="10" height="10" fill="#161b22" stroke="#1b1f23" stroke-width="0.5"/>
    <rect class="cell" x="596" y="72" width="10" height="10" fill="#161b22" stroke="#1b1f23" stroke-width="0.5"/>
    <rect class="cell" x="596" y="84" width="10" height="10" fill="#161b22" stroke="#1b1f23" stroke-width="0.5"/>
    <rect class="cell falling active" x="596" y="96" width="10" height="10" fill="#39d353" style="animation-delay: 0.78s"/>
    <rect class="cell falling active" x="596" y="108" width="10" height="10" fill="#39d353" style="animation-delay: 0.7999999999999999s"/>
    <rect class="cell" x="596" y="120" width="10" height="10" fill="#161b22" stroke="#1b1f23" stroke-width="0.5"/>
    <rect class="cell falling active" x="596" y="132" width="10" height="10" fill="#39d353" style="animation-delay: 0.84s"/>
    <rect class="cell" x="608" y="60" width="10" height="10" fill="#161b22" stroke="#1b1f23" stroke-width="0.5"/>
    <rect class="cell falling active" x="608" y="72" width="10" height="10" fill="#39d353" style="animation-delay: 0.755s"/>
    <rect class="cell" x="608" y="84" width="10" height="10" fill="#161b22" stroke="#1b1f23" stroke-width="0.5"/>
    <rect class="cell falling active" x="608" y="96" width="10" height="10" fill="#39d353" style="animation-delay: 0.7949999999999999s"/>
    <rect class="cell falling active" x="608" y="108" width="10" height="10" fill="#39d353" style="animation-delay: 0.815s"/>
    <rect class="cell falling active" x="608" y="120" width="10" height="10" fill="#0e4429" style="animation-delay: 0.835s"/>
    <rect class="cell" x="608" y="132" width="10" height="10" fill="#161b22" stroke="#1b1f23" stroke-width="0.5"/>
    <rect class="cell" x="620" y="60" width="10" height="10" fill="#161b22" stroke="#1b1f23" stroke-width="0.5"/>
    <rect class="cell" x="620" y="72" width="10" height="10" fill="#161b22" stroke="#1b1f23" stroke-width="0.5"/>
    <rect class="cell falling active" x="620" y="84" width="10" height="10" fill="#26a641" style="animation-delay: 0.79s"/>
    <rect class="cell falling active" x="620" y="96" width="10" height="10" fill="#39d353" style="animation-delay: 0.81s"/>
    <rect class="cell" x="620" y="108" width="10" height="10" fill="#161b22" stroke="#1b1f23" stroke-width="0.5"/>
    <rect class="cell" x="620" y="120" width="10" height="10" fill="#161b22" stroke="#1b1f23" stroke-width="0.5"/>
    <rect class="cell" x="620" y="132" width="10" height="10" fill="#161b22" stroke="#1b1f23" stroke-width="0.5"/>
    <rect class="cell" x="632" y="60" width="10" height="10" fill="#161b22" stroke="#1b1f23" stroke-width="0.5"/>
    <rect class="cell falling active" x="632" y="72" width="10" height="10" fill="#006d32" style="animation-delay: 0.785s"/>
    <rect class="cell" x="632" y="84" width="10" height="10" fill="#161b22" stroke="#1b1f23" stroke-width="0.5"/>
    <rect class="cell falling active" x="632" y="96" width="10" height="10" fill="#39d353" style="animation-delay: 0.825s"/>
    <rect class="cell" x="632" y="108" width="10" height="10" fill="#161b22" stroke="#1b1f23" stroke-width="0.5"/>
    <rect class="cell" x="632" y="120" width="10" height="10" fill="#161b22" stroke="#1b1f23" stroke-width="0.5"/>
    <rect class="cell" x="632" y="132" width="10" height="10" fill="#161b22" stroke="#1b1f23" stroke-width="0.5"/>
    <rect class="cell" x="644" y="60" width="10" height="10" fill="#161b22" stroke="#1b1f23" stroke-width="0.5"/>
    <rect class="cell falling active" x="644" y="72" width="10" height="10" fill="#0e4429" style="animation-delay: 0.8s"/>
    <rect class="cell" x="644" y="84" width="10" height="10" fill="#161b22" stroke="#1b1f23" stroke-width="0.5"/>
    <rect class="cell" x="644" y="96" width="10" height="10" fill="#161b22" stroke="#1b1f23" stroke-width="0.5"/>
    <rect class="cell" x="644" y="108" width="10" height="10" fill="#161b22" stroke="#1b1f23" stroke-width="0.5"/>
    <rect class="cell" x="644" y="120" width="10" height="10" fill="#161b22" stroke="#1b1f23" stroke-width="0.5"/>
    <rect class="cell" x="644" y="132" width="10" height="10" fill="#161b22" stroke="#1b1f23" stroke-width="0.5"/>
    
    <!-- Legend -->
    <g id="legend">
        <text x="660" y="150" fill="#8b949e" font-size="11" font-family="sans-serif">Less</text>
        <rect x="695" y="142" width="11" height="11" fill="#161b22" stroke="#1b1f23" stroke-width="1" rx="2"/>
        <rect x="710" y="142" width="11" height="11" fill="#0e4429" rx="2"/>
        <rect x="725" y="142" width="11" height="11" fill="#006d32" rx="2"/>
        <rect x="740" y="142" width="11" height="11" fill="#26a641" rx="2"/>
        <rect x="755" y="142" width="11" height="11" fill="#39d353" rx="2"/>
        <text x="770" y="150" fill="#8b949e" font-size="11" font-family="sans-serif">More</text>
    </g>
    
    <!-- Stats -->
    <text x="20" y="152" fill="#8b949e" font-size="9" font-family="sans-serif">
        💚 146 contributions in the last year
    </text>
</svg>